<svg width="256" height="256" viewBox="0 0 256 256" fill="none" xmlns="http://www.w3.org/2000/svg" role="img" aria-labelledby="title desc">
  <title id="title">MPGA Logo</title>
  <desc id="desc">Stylized orbit emblem with central dwarf planet</desc>
  <defs>
    <radialGradient id="g0" cx="0" cy="0" r="1" gradientUnits="userSpaceOnUse" gradientTransform="translate(128 128) rotate(90) scale(128)">
      <stop offset="0%" stop-color="#fcecce" />
      <stop offset="55%" stop-color="#c99665" />
      <stop offset="100%" stop-color="#252627" />
    </radialGradient>
    <linearGradient id="strokeGrad" x1="0" y1="0" x2="256" y2="256" gradientUnits="userSpaceOnUse">
      <stop stop-color="#b83c2c" />
      <stop offset="1" stop-color="#80563e" />
    </linearGradient>
  </defs>
  <rect width="256" height="256" rx="32" fill="#1f1f21"/>
  <g filter="url(#shadow)">
    <circle cx="128" cy="128" r="70" fill="url(#g0)" stroke="url(#strokeGrad)" stroke-width="3" />
  </g>
  <g stroke="url(#strokeGrad)" stroke-width="2" stroke-linecap="round" stroke-linejoin="round" fill="none">
    <path d="M32 128c0-53.019 42.981-96 96-96s96 42.981 96 96-42.981 96-96 96-96-42.981-96-96z" opacity="0.35" />
    <path d="M56 128c0-39.764 32.236-72 72-72s72 32.236 72 72-32.236 72-72 72-72-32.236-72-72z" opacity="0.25" />
  </g>
  <circle cx="178" cy="98" r="10" fill="#b83c2c" stroke="#fcecce" stroke-width="2" />
  <circle cx="110" cy="154" r="6" fill="#80563e" stroke="#fcecce" stroke-width="1.5" />
  <text x="50%" y="220" font-family="Orbitron,Arial,Helvetica,sans-serif" font-size="32" text-anchor="middle" fill="#fcecce" letter-spacing="4">MPGA</text>
</svg>
